<svg width="80" height="80" viewBox="0 0 80 80" fill="none" xmlns="http://www.w3.org/2000/svg">
<g clip-path="url(#clip0_81_2)">
<path d="M48.0952 72.381C56.7 72.381 64.6666 69.6524 71.1905 65.0286C76.6952 58.1762 80 49.4762 80 40C80 17.9095 62.0905 0 40 0C31.3952 0 23.4285 2.72857 16.9047 7.35238C11.4 14.2048 8.09521 22.9048 8.09521 32.381C8.09521 54.4714 26.0047 72.381 48.0952 72.381ZM46.6666 59.0476C45.0905 59.0476 43.8095 57.7667 43.8095 56.1905C43.8095 54.6143 45.0905 53.3333 46.6666 53.3333C48.2428 53.3333 49.5238 54.6143 49.5238 56.1905C49.5238 57.7667 48.2428 59.0476 46.6666 59.0476ZM67.1428 50.9524C68.4571 50.9524 69.5238 52.019 69.5238 53.3333C69.5238 54.6476 68.4571 55.7143 67.1428 55.7143C65.8285 55.7143 64.7619 54.6476 64.7619 53.3333C64.7619 52.019 65.8285 50.9524 67.1428 50.9524ZM60.7143 31.4286C62.9476 31.4286 64.7619 33.2429 64.7619 35.4762C64.7619 37.7095 62.9476 39.5238 60.7143 39.5238C58.4809 39.5238 56.6666 37.7095 56.6666 35.4762C56.6666 33.2429 58.4809 31.4286 60.7143 31.4286ZM48.0952 9.04762C49.1476 9.04762 50 9.9 50 10.9524C50 12.0048 49.1476 12.8571 48.0952 12.8571C47.0428 12.8571 46.1905 12.0048 46.1905 10.9524C46.1905 9.9 47.0428 9.04762 48.0952 9.04762ZM44.2857 29.0476C45.6 29.0476 46.6666 30.1143 46.6666 31.4286C46.6666 32.7429 45.6 33.8095 44.2857 33.8095C42.9714 33.8095 41.9047 32.7429 41.9047 31.4286C41.9047 30.1143 42.9714 29.0476 44.2857 29.0476ZM30.9524 15.7143C34.1095 15.7143 36.6666 18.2714 36.6666 21.4286C36.6666 24.5857 34.1095 27.1429 30.9524 27.1429C27.7952 27.1429 25.2381 24.5857 25.2381 21.4286C25.2381 18.2714 27.7952 15.7143 30.9524 15.7143ZM26.6666 42.381C27.9809 42.381 29.0476 43.4476 29.0476 44.7619C29.0476 46.0762 27.9809 47.1429 26.6666 47.1429C25.3524 47.1429 24.2857 46.0762 24.2857 44.7619C24.2857 43.4476 25.3524 42.381 26.6666 42.381ZM16.6666 24.2857C17.719 24.2857 18.5714 25.1381 18.5714 26.1905C18.5714 27.2429 17.719 28.0952 16.6666 28.0952C15.6143 28.0952 14.7619 27.2429 14.7619 26.1905C14.7619 25.1381 15.6143 24.2857 16.6666 24.2857Z" fill="#E5E5E5"/>
<path d="M12.3476 11.1143C11.5238 11.9048 10.7333 12.7286 9.9762 13.581C10.7286 12.7238 11.5238 11.9 12.3476 11.1143Z" fill="#F5E8DB"/>
<path d="M48.0952 72.3809C26.0048 72.3809 8.09524 54.4714 8.09524 32.381C8.09524 22.9048 11.3952 14.2048 16.9048 7.35238C15.3238 8.47619 13.8238 9.70952 12.4238 11.0429C12.4 11.0667 12.3714 11.0905 12.3476 11.1143C11.5238 11.9048 10.7333 12.7286 9.97619 13.581C9.9381 13.6238 9.9 13.6667 9.86191 13.7143C9.42857 14.2095 9.00953 14.719 8.6 15.2333C8.51905 15.3333 8.4381 15.4381 8.35715 15.5381C7.93334 16.0857 7.51905 16.6476 7.12381 17.219C7.10476 17.2476 7.08095 17.281 7.05715 17.3095C6.87619 17.5714 6.7 17.8381 6.52381 18.1048C6.40476 18.2905 6.28572 18.4762 6.16667 18.6619C5.92857 19.0429 5.69524 19.4238 5.46667 19.8143C5.32857 20.0476 5.19048 20.2857 5.05715 20.5238C4.92381 20.7571 4.79524 20.9952 4.66667 21.2333C4.45715 21.6286 4.25238 22.0286 4.05238 22.4333C3.94762 22.6429 3.85238 22.8524 3.75238 23.0667C3.60476 23.3857 3.45715 23.7095 3.31429 24.0333C3.22857 24.2333 3.1381 24.4381 3.05238 24.6381C2.87143 25.0714 2.7 25.5143 2.53334 25.9524C2.46191 26.1381 2.39524 26.3238 2.32857 26.5095C2.15715 26.9952 1.99048 27.481 1.83334 27.9714C1.79048 28.1095 1.74762 28.2524 1.70476 28.3952C1.57143 28.8333 1.44762 29.2762 1.32857 29.7238C1.29524 29.8571 1.25715 29.9857 1.22381 30.119C1.09048 30.6524 0.966669 31.1857 0.852383 31.7286C0.823812 31.8714 0.79524 32.019 0.761907 32.1619C0.652383 32.719 0.547621 33.281 0.461907 33.8476C0.452383 33.9143 0.442859 33.9857 0.433336 34.0524C0.352383 34.5905 0.285717 35.1333 0.228574 35.6762C0.214288 35.7905 0.200002 35.9048 0.190479 36.0238C0.133336 36.6048 0.0904785 37.1905 0.0571452 37.7762C0.0523833 37.9 0.0476214 38.019 0.0380976 38.1429C0.00952613 38.7524 -0.00952148 39.3667 -0.00952148 39.9857C-0.00952148 62.0762 17.9 79.9857 39.9905 79.9857C40.6191 79.9857 41.2476 79.9667 41.8714 79.9381C41.9619 79.9381 42.0571 79.9286 42.1476 79.9238C42.7381 79.8905 43.3238 79.8476 43.9048 79.7905C44.019 79.7809 44.1381 79.7667 44.2524 79.7571C44.8286 79.6952 45.4 79.6238 45.9714 79.5381C46.0762 79.5238 46.1762 79.5048 46.281 79.4905C46.8524 79.4 47.419 79.3 47.981 79.1857C48.0333 79.1762 48.0857 79.1619 48.1381 79.1524C48.681 79.0381 49.2191 78.9143 49.7524 78.781C49.8762 78.7524 49.9952 78.719 50.119 78.6905C50.6381 78.5571 51.1476 78.4095 51.6571 78.2524C51.8095 78.2048 51.9619 78.1571 52.1095 78.1095C52.6 77.9524 53.0905 77.7905 53.5762 77.6143C53.7333 77.5571 53.8857 77.5 54.0429 77.4381C54.4619 77.2809 54.8762 77.119 55.2857 76.9476C55.481 76.8667 55.6714 76.7857 55.8619 76.7C56.2333 76.5381 56.6048 76.3714 56.9714 76.1952C57.1571 76.1095 57.3429 76.0238 57.5238 75.9333C57.9333 75.7333 58.3381 75.5238 58.7381 75.3143C58.9476 75.2048 59.1571 75.0905 59.3667 74.9762C59.7476 74.7667 60.119 74.5524 60.4905 74.3286C60.7143 74.1952 60.9333 74.0571 61.1524 73.9238C61.3857 73.7762 61.6191 73.6286 61.8524 73.4762C62.1952 73.2524 62.5381 73.019 62.8762 72.7809C63.0714 72.6429 63.2667 72.5095 63.4571 72.3667C63.8238 72.1 64.1857 71.8286 64.5429 71.5524C64.7143 71.419 64.8857 71.2857 65.0571 71.1476C65.3048 70.9476 65.5524 70.7429 65.7952 70.5381C65.9095 70.4429 66.0238 70.3429 66.1381 70.2429C66.5524 69.8857 66.9571 69.519 67.3571 69.1429C67.4619 69.0476 67.5619 68.9476 67.6619 68.8524C68.0714 68.4619 68.4714 68.0619 68.8619 67.6524C68.9476 67.5619 69.0333 67.4762 69.119 67.3857C69.5619 66.9143 69.9905 66.4381 70.4095 65.9476C70.4381 65.9143 70.4667 65.8809 70.5 65.8476C70.7333 65.5714 70.9619 65.2952 71.1857 65.019C64.6619 69.6429 56.6952 72.3714 48.0905 72.3714L48.0952 72.3809Z" fill="#C9C9C9"/>
<path d="M30.9523 27.1429C34.1082 27.1429 36.6666 24.5845 36.6666 21.4286C36.6666 18.2727 34.1082 15.7143 30.9523 15.7143C27.7964 15.7143 25.238 18.2727 25.238 21.4286C25.238 24.5845 27.7964 27.1429 30.9523 27.1429Z" fill="#C9C9C9"/>
<path d="M60.7142 39.5238C62.9497 39.5238 64.7619 37.7116 64.7619 35.4762C64.7619 33.2408 62.9497 31.4286 60.7142 31.4286C58.4788 31.4286 56.6666 33.2408 56.6666 35.4762C56.6666 37.7116 58.4788 39.5238 60.7142 39.5238Z" fill="#C9C9C9"/>
<path d="M26.6667 47.1429C27.9817 47.1429 29.0477 46.0769 29.0477 44.7619C29.0477 43.4469 27.9817 42.381 26.6667 42.381C25.3518 42.381 24.2858 43.4469 24.2858 44.7619C24.2858 46.0769 25.3518 47.1429 26.6667 47.1429Z" fill="#C9C9C9"/>
<path d="M67.1429 55.7143C68.4579 55.7143 69.5239 54.6483 69.5239 53.3333C69.5239 52.0184 68.4579 50.9524 67.1429 50.9524C65.828 50.9524 64.762 52.0184 64.762 53.3333C64.762 54.6483 65.828 55.7143 67.1429 55.7143Z" fill="#C9C9C9"/>
<path d="M44.2857 33.8095C45.6007 33.8095 46.6667 32.7435 46.6667 31.4286C46.6667 30.1136 45.6007 29.0476 44.2857 29.0476C42.9708 29.0476 41.9048 30.1136 41.9048 31.4286C41.9048 32.7435 42.9708 33.8095 44.2857 33.8095Z" fill="#C9C9C9"/>
<path d="M46.6667 59.0476C48.2447 59.0476 49.5239 57.7684 49.5239 56.1905C49.5239 54.6125 48.2447 53.3333 46.6667 53.3333C45.0888 53.3333 43.8096 54.6125 43.8096 56.1905C43.8096 57.7684 45.0888 59.0476 46.6667 59.0476Z" fill="#C9C9C9"/>
<path d="M48.0952 12.8571C49.1472 12.8571 50 12.0044 50 10.9524C50 9.90041 49.1472 9.04762 48.0952 9.04762C47.0432 9.04762 46.1904 9.90041 46.1904 10.9524C46.1904 12.0044 47.0432 12.8571 48.0952 12.8571Z" fill="#C9C9C9"/>
<path d="M16.6667 28.0952C17.7187 28.0952 18.5715 27.2425 18.5715 26.1905C18.5715 25.1385 17.7187 24.2857 16.6667 24.2857C15.6148 24.2857 14.762 25.1385 14.762 26.1905C14.762 27.2425 15.6148 28.0952 16.6667 28.0952Z" fill="#C9C9C9"/>
</g>
<defs>
<clipPath id="clip0_81_2">
<rect width="80" height="80" fill="white"/>
</clipPath>
</defs>
</svg>
